<svg xmlns="http://www.w3.org/2000/svg" viewBox="0 0 64 64">
  <defs>
    <linearGradient id="heartGradient" x1="0" y1="0" x2="1" y2="1">
      <stop offset="0%" stop-color="#fb7185" />
      <stop offset="50%" stop-color="#ec4899" />
      <stop offset="100%" stop-color="#6366f1" />
    </linearGradient>
    <linearGradient id="bg" x1="0" y1="0" x2="1" y2="1">
      <stop offset="0%" stop-color="#020617" />
      <stop offset="100%" stop-color="#111827" />
    </linearGradient>
  </defs>
  <rect x="4" y="4" width="56" height="56" rx="16" fill="url(#bg)" />
  <path
    d="M32 48c-.8 0-1.6-.3-2.2-.8l-13-10.8C12.3 32.8 10 29.2 10 25.2 10 19.8 14.2 16 19.4 16c2.8 0 5.4 1.2 7.2 3.3L32 25l5.4-5.7C39.2 17.2 41.8 16 44.6 16 49.8 16 54 19.8 54 25.2c0 4-2.3 7.6-6.8 11.2l-13 10.8c-.6.5-1.4.8-2.2.8Z"
    fill="url(#heartGradient)"
  />
</svg>
